<?xml version='1.0' encoding='utf-8'?>
<svg xmlns="http://www.w3.org/2000/svg" enable-background="new 0 0 3552.3347 5000" version="1.1" viewBox="0 0 3552.3 5e3"> <path d="m2890.8 1688.8c282.22-187.04 502.43-507.62 661.52-807.96-124.67 136.29-167.59 208.33-417.27 306.99-0.384 0.1355-387.63 137.28-407.59 141.82-9.0393-28.001 52.38-15 231.59-229.23 153.92-184.03 278.32-386.68 416.39-582.13l109.33-142.14c21.5-26.194 45.986-51.414 64.722-79.628-130.83 114.8-266.98 216.1-418.91 301.63-241.92 122.65-161.86 81.861-321.51 163.81l127.8-761.95h-75.606l-126.79 791.69c-30.223 21.109-201.3 90.234-392.38 250.08-258.49 216.21-248.64 323.97-332.14 302.15-18.706-4.886-28.053-20.514-36.84-36.239 49.19-17.751 87.389-37.336 125.31-74.11-41.797-0.0857-64.055-9.4791-94.968-37.502 1.5714-5.0579 41.479-24.304 49.002-29.484 52.711-36.269 67.158-89.097 77.233-148.54-8.3423 12.804-17.074 25.512-29.084 35.193-26.048 20.996-66.744 24.678-79.88-8.5896-14.736-37.246 6.9438-126.84-89.248-252.57 38.351-38.704 47.478-83.662 46.754-137.86-3.9767 2.4608-9.9438 22.601-12.794 28.018-7.1598 13.617-21.146 28.286-35.304 34.688-17.023 7.7055-40.59 7.3619-57.87 0.5204-11.318-4.4769-21.282-13.658-30.756-21.146-27.551-21.775-66.476-56.151-129.27-80.082-19.903-7.5842-41.049-12.071-61.24-19.069 5.1691-50.094 27.139-87.167 57.269-126.08l-19.165 9.3788c-43.732 23.535-64.818 63.952-79.037 110.01-151.66-11.461-209.93 26.209-286.24 98.116l0.4951-93.872c-4.881-65.434-30.271-146.12-81.265-190.28 6.4172 33.296 25.163 63.466 30.656 96.74 1.9467 12.841 7.1984 44.894-0.9045 55.96l-35.39 50.533c-44.293 76.56-28.487 121.55-14.856 174.07-59.352 11.473-137.69 29.946-171.96-21.934-20.373-30.833-12.112-68.678-6.3563-102.46-25.057 33.776-42.605 63.84-34.072 109.18 9.8026 52.09 48.315 92.093 90.497 120.62-14.825 8.5034-29.797 17.235-41.898 29.488-33.894 34.334-49.77 81.043-49.427 128.71 0.3994 56.143 18.039 95.009 58.057 133.91-19.198-76.637-7.1149-94.829 4.1736-120.92-1.3706 41.348-10.409 106.21 66.253 175.26-8.7971-20.434-22.521-39.544-25.638-62.044-6.2655-45.233 3.4359-77.567 27.098-116.07 1.829 35.754 2.9507 69.254 14.436 103.59 13.471 40.276 47.901 84.494 50.195 126.86 2.5267 46.653-38.406 63.889-65.571 93.655-1.425 5.1033-2.1172 8.3877-1.1774 13.738 4.0371 23.078 53.039 39.273 57.663 47.148 4.674 7.9634-5.3508 31.252-2.3849 42.56 7.6045 10.773 31.853 17.301 44.455 23.551-8.4636 2.9305-17.124 5.3711-24.521 10.555-0.839 7.0688-0.4093 10.525 2.2637 17.129 8.3573 5.7804 19.984 4.4515 29.812 4.6637 19.736 21.162 13.223 47.967 19.853 74.211 34.799 44.056 140.82-7.175 182.54-22.657 17.154-6.3613 38.23-18.003 55.834-10.687 12.334 13.93 13.153 53.51 13.153 71.952 0 13.148-1.425 25.527-7.7308 37.33-33.279 62.285-96.99 59.463-123 69.992-94.092 38.076-108.77 204.57-418.1 512.13-88-123.91-203.69-194.86-301.87-317-27.715-34.508-26.528-26.998-21.55-78.723 2.2537-23.39 8.3979-48.816 7.751-72.14-1.1318-40.893-15.25-81.149-18.786-122.1-2.8122-32.529 2.5454-59.817-2.011-70.002-6.5437 0.854-13.885 1.8088-19.297 5.922-19.827 15.068-20.595 61.771-23.137 84.817-26.17-38.417-22.989-33.802-17.422-94.453 53.546-442.33 21.063-189.15 191.35-1607.5h-45.996l-194.13 1606.4c-8.906-2.0972-12.065-13.289-25.532-12.662-8.7566 0.4092-10.07 3.5825-15.921 9.3275-3.9616 13.673 3.2539 24.86 8.994 37.396-12.455-1.3744-26.199-4.8-37.765 0.9449-4.1736 5.9169-7.3468 9.6206-6.2251 17.24l8.883 30.357c-11.726 1.123-21.861 1.4963-27.998 11.026-5.3159 8.2644-5.0718 19.49 3.0215 26.831-8.2713 12.495-37.424 13.33-9.6712 44.212-1.7786 4.7095-4.0977 8.6859-6.7102 12.986-0.4299 46.824 52.474 69.763 72.428 95.529l-168 1190.5c-15.806 7.6121-25.506 14.098-42.085 37.315-13.597-8.9941-30.06-17.958-37.917-32.727 30.588-45.715-18.873-52.746-33.829-42.762-11.844 7.9028-18.721 18.604-20.717 32.682-3.6532 25.774 19.479 56.738 34.971 75.691 102.23 125.06 328.06 214.11 340.77 230.69-69.523 143.83-114.2 282.14-302.26 902.89-20.954 59.919-55.053 82.792-94.382 185-44.468 115.51-23.028 181.06-88.763 205.67-17.847 6.6802-64.216 9.5146-73.195 25.79 4.987 8.5649 14.936 12.546 23.713 16.856 64.102 31.471 133.55 53.302 195.68 17.377 25.775-14.906 50.119-40.564 58.254-69.603 4.2544-15.174 4.1988-32.106 6.7708-47.684 17.842-108.11 139.1-72.144 167.14-176.69 7.2003-26.846 4.8961-57.34-9.9138-81.326-14.269-23.102-49.356-45.324-44.379-74.878 6.5029-38.584 47.638-82.129 71.008-112.99 184.03-242.05 213.05-278.19 275.13-397.16 54.892 365.12 67.776 384.51 141.37 651.33 10.707 38.412 26.785 80.593 30.216 120.23 3.2592 37.649-9.5599 67.476-21.156 102.26-40.247 120.65-19.921 230.16-53.853 278.41-21.222 30.18-81.952 34.283-93.544 57.37 15.65 16.902 123.83 34.935 170.86 21.5 32.535-9.2925 56.556-28.822 73.044-58.401 23.142-41.523 9.181-102.86 23.809-133.53 9.2617-19.414 26.315-26.634 44.187-36.371 34.4-18.741 65.131-40.797 76.495-80.497 4.9266-17.21 4.2748-39.498-1.4147-56.436-6.4728-19.276-18.675-34.586-30.782-50.553-66.425-87.592-77.567-95.759-74.853-196.79 14.776-263.48 55.821-425.05-26.79-657.55-9.9439-27.982-23.178-54.192-34.713-81.457 372.98 94.49 631.82 64.746 657.72 72.387-42.206 74.332-67.774 142.33-71.745 228.19 30.428-25.552 61.771-44.773 98.434-60.205-10.464 104.01-11.04 205.87 22.389 306.27 24.375-43.177 50.352-80.3 82.099-118.32 3.754-4.4922 12.344-17.306 17.341-19.231 4.1437 143.26 9.8469 207.71 120.23 449.73 23.95-30.236 43.096-63.408 62.756-96.484 85.914-144.56 98.837-190.54 126.15-289.28 29.994 66.122 58.386 140.92 106.91 195.93 19.281-47.916 29.397-99.314 37.694-150.11 61.165 93.68 122.95 181.27 197.88 264.67 8.6758 9.6558 19.862 26.26 30.464 32.919 55.956-192.49 59.583-313.9 44.844-467.65 87.06 92.978 189.54 163.58 302.9 220.63-8.5745-176.99-38.154-358.52-134.5-510.96l184.62 39.114 1.324-0.8792c-35.203-90.779-88.92-174.18-153.72-246.51 39.367 3.5872 80.472 8.1802 119.98 6.0027-191.1-267.16-278.82-272.03-302.68-299.35 107.36-11.529 122.36-26.269 174.02-43.56-51.064-27.538-100.54-55.142-155.71-74.019-16.063-5.4924-33.06-12.445-49.856-15.017-1.5154-115.53-14.038-130.57-14.441-157.59-0.1431-9.45-0.4202-2.8149 18.402-109.04 158.95 147.01 112.4 100.75 209.9 206.54 23.041 26.209 35.577 50.397 67.44 68.299 60.604 34.073 82.452 23.736 127.37 42.267 23.905 9.8584 60.109 35.815 85.156 35.527 4.7395-0.0505 8.7363-1.6575 13.102-3.3198 2.9458-3.5117 4.6992-3.9563 4.4919-8.8274-0.6467-14.992-29.2-39.857-40.519-48.558-16.189-12.445-67.536-32.909-75.136-45.223-1.1216-1.8188-0.8286-4.1941-1.2378-6.2908 11.707-23.541 64.302-57.977 89.486-66.9 14.906-5.28 36.052 4.699 50.892 9.0444 17.064 4.9924 34.248 8.1453 51.605 11.829 23.379 4.9673 59.401 16.559 80.371-0.7122 2.5417-6.0281 3.9614-7.2153 3.0012-13.895-12.698-6.7205-28.882-9.2166-42.818-13.143-104.96-31.423-95.774-26.053-115.47-34.02 27.795-0.8491 45.896-5.4509 74.722-12.284 40.507-9.6033 101.95-23.79 108.42-68.138l-1.718-4.3103c-12.93-1.9758-37.102 14.714-50.63 18.61-39.872 11.485-84.827 19.352-126.17 22.248 40.196-21.909 74.191-43.783 101.51-81.871 19.205-26.775 19.584-35.375 17.806-48.154l-3.886-5.5076c-8.3083 2.0139-7.7646 3.5107-58.264 49.286-25.729 21.101-56.547 34.046-84.493 51.802-31.727 20.151-62.817 44.576-97.212 59.952-52.116 23.299-115.84 15.108-163.9-13.941-22.68-13.702-42.433-49.304-70.7-94.225-121.36-202.32-121.73-200.63-129.82-223.16 117.82-619.26 106.38-560.79 109.18-569.49 29.376-7.152 130.86-60.38 199.94-120.64-57.289 29.282-123.83 42.333-188.07 35.951l22.121-119.76c81.346-33.288 161.23-72.988 234.57-121.6zm-1447.3 975.8c-117.31 28.926-222.8 49.604-381.74 120.63-263.29 117.67-130.16 74.045-471.5 175.81-74.282 18.448-149.51 31.378-219.59 63.327l159.51-1102c18.774 20.751 23.923 31.664 110.18 178 97.394 162.44 161.48 282.83 265.42 366.81 38.118 30.815 38.102 36.991 96.282 2.1069 119.68-71.75 221.01-176.05 321.52-271.53 2.7335 26.457 7.1548 54.97 17.124 79.744 42.816 106.4 169.12 187.8 102.8 387.08zm558.58-1229.3c-16.661 27.69-11.826 20.339-20.065 31.292-19.72-0.3571-35.878-25.683-45.698-41.469 22.364 6.5535 42.525 8.8475 65.763 10.176zm-126.4 248.84c-30.014-15.724-61.726-30.226-88.925-50.523-17.2-15.522-40.857-39.028-48.861-60.877 2.865-2.6324 10.53-8.8475 11.475-12.632 1.4149-5.6995-4.3505-9.1608-0.9497-16.255l13.895 11.748 3.542-3.0721c-3.2036-5.2751-6.0684-8.0846-6.0684-14.411 40.456 32.886 95.451 34.477 147.77 35.971-25.56-20.608-40.049-30.35-42.929-72.089l3.4813-0.1616c29.322 25.75 57.486 24.66 91.406 15.411-33.338 52.792-60.285 109.14-83.832 166.89zm31.818 18.711c4.9819-11.685 0.1229-2.6526 101.24-147.44 260.41-367.35 473.07-543.19 697.1-674.91l5.25 0.1823c-59.098 40.544-118.15 78.824-174.52 123.34-248.93 196.57-423.43 424.49-588.63 665.11-9.4631 14.35-22.044 29.434-24.961 45.092l-5.7904-2.5266c-3.6078-2.7033-6.5181-5.6539-9.6917-8.8425zm500.77 1181.5c-2.8499 15.33-4.2395 40.974-11.308 54.045-6.2485 11.55-10.067 3.6797-77.248 64.485 0.2009-80.394-22.202-155.45-98.854-178.51-44.015-13.244-82.842 4.3906-121.15 24.254-13.296-199.52-106.96-302.19-150.9-385.92-60.028-114.39-24.643-234.59 11.667-350.65 192 290.12 152.32 230.64 201.82 303.47 7.9939 10.934 18.034 21.753 24.845 33.369 5.3965 9.2014 8.6001 20.788 12.986 30.666 52.199 117.67 136.67 193.05 232.67 273.67l-24.521 131.12zm52.059-370.1c-56.374-81.81-99.428-96.678-139.17-143.98-28.918-34.425-49.771-79.532-71.053-119.16-39.134-72.882-78.784-146.71-110.98-222.96 34.864 16.472 74.307 26.654 112.03 34.289 103.64 20.964 195.41 17.003 296.51-13.991-80.122 430.68-63.046 340.11-87.338 465.79zm110.05-601.14c-128.73-37.919-5.1648-22.954-529.73-74.201l1.5465 2.5519-48.477-69.159c15.947 7.7864 35.698 44.152 46.138 59.209 160.83-2.8458 379.54 45.306 415.97 42.353 40.943-3.3298 88.258-24.016 127.76-36.598-9.8657 53.251-6.9118 36.116-13.203 75.843zm-539.06-217.53c-21.399 13.986-50.554 28.336-68.143 46.405-3.577-2.2537-6.6644-4.9669-9.9236-7.655 17.074-18.229 36.988-29.248 126.13-84.479 300.36-181.17 385.04-211.11 570.95-291.88 3.8455-0.8385 4.1941-1.4198 8.0596 0-31.93 29.09-254.24 93.908-627.08 337.61z"/> </svg>