<svg width="18" height="26" viewBox="0 0 18 26" fill="none" xmlns="http://www.w3.org/2000/svg">
<path d="M8.60547 12.9998C8.60547 11.9389 9.0269 10.9215 9.77705 10.1713C10.5272 9.42119 11.5446 8.99976 12.6055 8.99976C13.6664 8.99976 14.6838 9.42119 15.434 10.1713C16.1841 10.9215 16.6056 11.9389 16.6056 12.9998C16.6056 14.0607 16.1841 15.0781 15.434 15.8283C14.6838 16.5784 13.6664 16.9998 12.6055 16.9998C11.5446 16.9998 10.5272 16.5784 9.77705 15.8283C9.0269 15.0781 8.60547 14.0607 8.60547 12.9998V12.9998Z" stroke="white" stroke-width="1.12001"/>
<path d="M0.605469 21.0002C0.605469 19.9393 1.0269 18.9219 1.77705 18.1717C2.52721 17.4216 3.54463 17.0001 4.60551 17.0001H8.60555V21.0002C8.60555 22.061 8.18412 23.0785 7.43397 23.8286C6.68381 24.5788 5.66639 25.0002 4.60551 25.0002C3.54463 25.0002 2.52721 24.5788 1.77705 23.8286C1.0269 23.0785 0.605469 22.061 0.605469 21.0002Z" stroke="white" stroke-width="1.12001"/>
<path d="M8.60547 1V9.00008H12.6055C13.6664 9.00008 14.6838 8.57865 15.434 7.8285C16.1841 7.07834 16.6056 6.06092 16.6056 5.00004C16.6056 3.93916 16.1841 2.92174 15.434 2.17158C14.6838 1.42143 13.6664 1 12.6055 1L8.60547 1Z" stroke="white" stroke-width="1.12001"/>
<path d="M0.605469 5.00004C0.605469 6.06092 1.0269 7.07834 1.77705 7.8285C2.52721 8.57865 3.54463 9.00008 4.60551 9.00008H8.60555V1H4.60551C3.54463 1 2.52721 1.42143 1.77705 2.17158C1.0269 2.92174 0.605469 3.93916 0.605469 5.00004Z" stroke="white" stroke-width="1.12001"/>
<path d="M0.605469 12.9998C0.605469 14.0607 1.0269 15.0781 1.77705 15.8283C2.52721 16.5784 3.54463 16.9998 4.60551 16.9998H8.60555V8.99976H4.60551C3.54463 8.99976 2.52721 9.42119 1.77705 10.1713C1.0269 10.9215 0.605469 11.9389 0.605469 12.9998Z" stroke="white" stroke-width="1.12001"/>
</svg>
