<svg width="32" height="26" viewBox="0 0 32 26" fill="none" xmlns="http://www.w3.org/2000/svg">
<path d="M15.5706 0.500122C7.01096 0.500122 0.0705566 6.24231 0.0705566 13.3182C0.0705566 18.9823 4.51297 23.7814 10.6714 25.4778C10.7578 25.4929 10.846 25.5004 10.9344 25.5001C11.5087 25.5001 11.7302 25.1597 11.7302 24.864C11.7302 24.557 11.7163 23.7535 11.7094 22.682C11.1967 22.779 10.6722 22.8295 10.1456 22.8327C7.16319 22.8327 6.48507 20.9633 6.48507 20.9633C5.77926 19.4845 4.76207 19.0883 4.76207 19.0883C3.41274 18.3238 4.75515 18.3015 4.85895 18.3015H4.86587C6.42279 18.4131 7.23931 19.6296 7.23931 19.6296C8.01431 20.7233 9.05225 21.0302 9.97948 21.0302C10.5926 21.0204 11.1962 20.9063 11.7509 20.6954C11.8893 19.8695 12.2906 19.3059 12.7335 18.9823C9.29444 18.6586 5.67547 17.5593 5.67547 12.6486C5.67547 11.2479 6.27748 10.1039 7.26698 9.21106C7.10783 8.8874 6.57502 7.58159 7.41922 5.8182C7.53245 5.79635 7.64884 5.78696 7.7652 5.7903C8.32569 5.7903 9.59198 5.96329 11.6817 7.13516C14.2209 6.56223 16.9064 6.56223 19.4456 7.13516C21.5353 5.96329 22.8016 5.7903 23.3621 5.7903C23.4784 5.78696 23.5948 5.79635 23.7081 5.8182C24.5523 7.58159 24.0194 8.8874 23.8603 9.21106C24.8498 10.1095 25.4518 11.2535 25.4518 12.6486C25.4518 17.5704 21.8259 18.653 18.373 18.9711C18.9266 19.3673 19.4248 20.1486 19.4248 21.3427C19.4248 23.0559 19.404 24.4398 19.404 24.8584C19.404 25.1597 19.6185 25.5001 20.1929 25.5001C20.2858 25.5004 20.3786 25.493 20.4697 25.4778C26.6351 23.7814 31.0706 18.9767 31.0706 13.3182C31.0706 6.24231 24.1302 0.500122 15.5706 0.500122Z" fill="white"/>
</svg>
